<svg width="24" height="24" viewBox="0 0 24 24" fill="none" xmlns="http://www.w3.org/2000/svg">
<rect width="24" height="24" fill="#ED7100"/>
<path d="M18.7432 7.67431L12.2432 4.06299C12.0908 3.97901 11.9092 3.97901 11.7568 4.06299L5.25684 7.67431C5.09864 7.7622 5 7.92969 5 8.11133V15.6616C5 15.8384 5.09375 16.0019 5.24609 16.0923L11.7461 19.9326C11.8242 19.979 11.9121 20.0019 12 20.0019C12.0879 20.0019 12.1758 19.979 12.2539 19.9326L18.7539 16.0923C18.9063 16.0019 19 15.8384 19 15.6616V8.11133C19 7.92969 18.9014 7.7622 18.7432 7.67431ZM12 5.07177L17.4879 8.12079L12 11.3081L6.51208 8.12079L12 5.07177ZM6 8.98004L11.5 12.1738V18.626L6 15.3765V8.98004ZM12.5 18.626V12.1738L18 8.98004V15.3765L12.5 18.626Z" fill="white"/>
</svg>
